<svg viewBox="0 0 260 180" fill="none" xmlns="http://www.w3.org/2000/svg"><rect width="260" height="180" fill="var(--color-bg)"></rect>
<rect x="56" y="18" width="148" height="144" fill="var(--color-contrast-lower)"></rect>
<rect x="66" y="28" width="28" height="28" fill="var(--color-contrast-high)"></rect>
<path d="M72 48.6865L82.6567 38.0298L89 48.6865H72Z" fill="var(--color-bg)"></path>
<path d="M74.0662 40.0597C75.1873 40.0597 76.0961 39.1509 76.0961 38.0299C76.0961 36.9088 75.1873 36 74.0662 36C72.9452 36 72.0364 36.9088 72.0364 38.0299C72.0364 39.1509 72.9452 40.0597 74.0662 40.0597Z" fill="var(--color-bg)"></path>
<rect x="102" y="33" width="80" height="7" fill="var(--color-contrast-high)"></rect>
<rect x="102" y="45" width="44" height="5" fill="var(--color-contrast-medium)"></rect>
<rect x="66" y="76" width="28" height="28" fill="var(--color-contrast-high)"></rect>
<path d="M72 96.6865L82.6567 86.0298L89 96.6865H72Z" fill="var(--color-bg)"></path>
<path d="M74.0662 88.0597C75.1873 88.0597 76.0961 87.1509 76.0961 86.0299C76.0961 84.9088 75.1873 84 74.0662 84C72.9452 84 72.0364 84.9088 72.0364 86.0299C72.0364 87.1509 72.9452 88.0597 74.0662 88.0597Z" fill="var(--color-bg)"></path>
<rect x="102" y="81" width="80" height="7" fill="var(--color-contrast-high)"></rect>
<rect x="102" y="93" width="44" height="5" fill="var(--color-contrast-medium)"></rect>
<rect x="66" y="124" width="28" height="28" fill="var(--color-contrast-high)"></rect>
<path d="M72 144.687L82.6567 134.03L89 144.687H72Z" fill="var(--color-bg)"></path>
<path d="M74.0662 136.06C75.1873 136.06 76.0961 135.151 76.0961 134.03C76.0961 132.909 75.1873 132 74.0662 132C72.9452 132 72.0364 132.909 72.0364 134.03C72.0364 135.151 72.9452 136.06 74.0662 136.06Z" fill="var(--color-bg)"></path>
<rect x="102" y="129" width="80" height="7" fill="var(--color-contrast-high)"></rect>
<rect x="102" y="141" width="44" height="5" fill="var(--color-contrast-medium)"></rect>
</svg>
